<svg width="301" height="296" viewBox="0 0 301 296" fill="none" xmlns="http://www.w3.org/2000/svg">
<g clip-path="url(#clip0_16_2)">
<path d="M73.13 211.33C67.1866 198.973 47.82 177.302 30.163 196.492C12.506 215.682 37.7866 262.26 57.376 262.067C76.965 261.874 79.074 223.687 73.131 211.33H73.13Z" fill="#00DD00" stroke="#222B00" stroke-width="10"/>
<path d="M56.01 232.34C44.598 227.399 32.854 235.293 24.497 246.396C14.209 247.855 1.03701 253.542 6.05801 263.413C13.7818 275.909 23.146 261.858 32.052 260.063C28.709 266.477 23.0639 277.979 31.7004 282.325C40.3369 286.671 44.2264 273.287 49.6144 268.921C49.3299 274.465 45.7811 292.166 63.2234 290.264C76.1944 287.554 71.8634 273.422 66.335 266.732C63.7989 262.977 57.9567 256.902 59.0684 253.708C63.3692 243.785 67.421 237.281 56.0088 232.34L56.01 232.34Z" fill="#00DD00" stroke="#222B00" stroke-width="10" stroke-linecap="round" stroke-linejoin="round"/>
<path d="M229 211.33C234.943 198.973 254.31 177.302 271.967 196.492C289.624 215.682 264.343 262.26 244.754 262.067C225.165 261.874 223.056 223.687 228.999 211.33H229Z" fill="#00DD00" stroke="#222B00" stroke-width="10"/>
<path d="M244.53 232.34C255.942 227.399 267.686 235.293 276.043 246.396C286.331 247.855 299.503 253.542 294.482 263.413C286.758 275.909 277.394 261.858 268.488 260.063C271.831 266.477 277.476 277.979 268.84 282.325C260.203 286.671 256.314 273.287 250.926 268.921C251.21 274.465 254.759 292.166 237.317 290.264C224.346 287.554 228.677 273.422 234.205 266.732C236.741 262.977 242.583 256.902 241.472 253.708C237.171 243.785 233.119 237.281 244.531 232.34L244.53 232.34Z" fill="#00DD00" stroke="#222B00" stroke-width="10" stroke-linecap="round" stroke-linejoin="round"/>
<path d="M65.96 185.72C58.6698 192.683 39.842 206.817 48.46 231.077C57.0784 255.337 111.851 278.367 149.17 280.006C186.493 281.645 241.608 257.648 249.88 231.077C258.156 204.506 234.963 198.367 222.737 190.363C192.654 173.073 94.317 167.329 65.947 185.72L65.96 185.72Z" fill="#00DD00" stroke="#222B00" stroke-width="10"/>
<path d="M152.08 216.09C120.001 216.09 93.986 236.785 93.986 262.309C93.986 263.799 94.0939 265.292 94.2673 266.746C112.264 274.246 132.464 279.262 149.173 279.996C167.677 280.809 190.549 275.32 209.923 266.34C210.067 265.016 210.142 263.663 210.142 262.309C210.142 236.785 184.158 216.09 152.08 216.09V216.09Z" fill="#E5FF80"/>
<path d="M65.96 185.72C58.6698 192.683 39.842 206.817 48.46 231.077C57.0784 255.337 111.851 278.367 149.17 280.006C186.493 281.645 241.608 257.648 249.88 231.077C258.156 204.506 234.963 198.367 222.737 190.363C192.654 173.073 94.317 167.329 65.947 185.72L65.96 185.72Z" stroke="#222B00" stroke-width="10"/>
<path d="M79.53 102.86C59.996 116.622 29.531 120.798 35.244 152.146C40.9574 183.493 107.373 206.061 150.244 206.789C193.115 207.517 259.974 183.623 268.104 152.146C276.228 120.669 249.195 117.608 229.533 102.86C209.871 88.1119 177.218 71.8139 150.247 72.5029C123.277 73.1918 99.067 89.0979 79.533 102.86H79.53Z" fill="url(#paint0_radial_16_2)" stroke="#222B00" stroke-width="10"/>
<path d="M153.57 61.0331C153.57 91.4369 135.366 116.085 112.911 116.085C90.456 116.085 72.252 91.4369 72.252 61.0331C72.252 30.6293 90.456 5.98169 112.911 5.98169C135.366 5.98169 153.57 30.6293 153.57 61.0331Z" fill="white" stroke="#222B00" stroke-width="9.99992" stroke-linecap="round" stroke-linejoin="round"/>
<path d="M232.86 75.9442C232.86 99.2361 215.674 118.118 194.474 118.118C173.274 118.118 156.088 99.2361 156.088 75.9442C156.088 52.6523 173.274 33.7701 194.474 33.7701C215.674 33.7701 232.86 52.6523 232.86 75.9442Z" fill="white" stroke="#222B00" stroke-width="9.99999" stroke-linecap="round" stroke-linejoin="round"/>
<path d="M113.93 52.92C105.696 57.9064 103.066 68.615 108.052 76.849C113.039 85.0826 123.747 87.713 131.981 82.7266C139.398 78.2348 142.236 69.1046 139.088 61.3166C139.176 64.5636 137.497 67.8174 134.415 69.6836C129.933 72.398 124.157 71.1137 121.566 66.8355C118.975 62.5572 120.535 56.8799 125.017 54.1655C127.258 52.8083 129.795 52.4707 132.113 52.9831C126.724 49.6595 119.718 49.4149 113.931 52.9202L113.93 52.92Z" fill="black"/>
<path d="M143.971 134.03C143.971 140.027 140.919 144.889 137.153 144.889C133.387 144.889 130.334 140.027 130.334 134.03C130.334 128.032 133.387 123.171 137.153 123.171C140.919 123.171 143.971 128.033 143.971 134.03Z" fill="#222B00"/>
<path d="M166.447 133.272C166.447 139.269 163.394 144.131 159.628 144.131C155.863 144.131 152.81 139.269 152.81 133.272C152.81 127.275 155.863 122.413 159.628 122.413C163.394 122.413 166.447 127.275 166.447 133.272Z" fill="#222B00"/>
<path d="M188.51 56.81C194.594 60.4948 196.538 68.408 192.853 74.492C189.169 80.5764 181.255 82.5201 175.171 78.8353C169.691 75.5161 167.594 68.7693 169.92 63.0143C169.855 65.4137 171.096 67.8182 173.373 69.1972C176.685 71.203 180.953 70.254 182.868 67.0925C184.782 63.931 183.629 59.7357 180.318 57.7299C178.662 56.727 176.787 56.4775 175.074 56.8561C179.057 54.4001 184.233 54.2194 188.51 56.8095L188.51 56.81Z" fill="black"/>
</g>
<defs>
<radialGradient id="paint0_radial_16_2" cx="0" cy="0" r="1" gradientUnits="userSpaceOnUse" gradientTransform="translate(315.168 304.853) rotate(91.9946) scale(27.2883 33.7625)">
<stop stop-color="#39CB39"/>
<stop offset="1" stop-color="#4AF84A"/>
</radialGradient>
<clipPath id="clip0_16_2">
<rect width="300.55" height="295.41" fill="white"/>
</clipPath>
</defs>
</svg>
