<svg width="200" height="200" viewBox="0 0 200 200" fill="none" xmlns="http://www.w3.org/2000/svg">
<path d="M64.6003 51.0029C56.694 50.92 48.6982 54.1277 44.2832 60.3974C37.2703 70.3575 39.0812 87.9294 56.0072 92.9154C43.3152 121.954 57.9597 139.297 80.7162 142.905C82.6753 144.595 85.4913 146.028 88.4684 146.801C88.5715 146.828 88.6706 146.871 88.774 146.896C89.1544 147.01 89.5211 147.116 89.8815 147.182C93.451 147.841 96.4971 148.131 99.5432 148.118C99.6192 148.118 99.6963 148.117 99.7724 148.118C102.819 148.132 105.865 147.841 109.434 147.182C109.795 147.116 110.161 147.01 110.542 146.896C110.643 146.867 110.745 146.834 110.847 146.801C113.825 146.028 116.621 144.595 118.581 142.905C141.337 139.298 156.001 121.954 143.308 92.9154C160.234 87.9297 162.045 70.3574 155.032 60.3974C145.614 47.0214 119.861 47.5804 113.559 64.2927C108.899 62.7644 105.243 62.1043 100.212 62.2114C100.025 62.2154 99.8434 62.2247 99.658 62.2305C99.4683 62.2245 99.2756 62.2154 99.085 62.2114C94.054 62.1044 90.4168 62.7644 85.757 64.2927C82.4091 55.4145 73.5613 51.0969 64.6003 51.0029Z" stroke="#232323" stroke-width="5.4992"/>
<path d="M89.4002 119.933C90.6566 115.234 108.106 114.783 109.899 119.933C111.435 124.344 104.332 130.035 99.6492 130.048C95.3836 130.059 88.1362 124.658 89.3992 119.933H89.4002Z" fill="#232323"/>
<path opacity="0.2" d="M49.3002 63.7529C59.266 52.7259 76.3882 59.7819 77.4342 70.5707C72.7094 74.9994 62.4172 83.4728 59.5082 89.4138C40.4322 81.5992 44.9972 68.5149 49.3002 63.7529Z" fill="#232323"/>
<path opacity="0.2" d="M149.4 63.7529C139.434 52.7259 122.312 59.7819 121.266 70.5707C125.991 74.9994 136.283 83.4728 139.192 89.4138C158.268 81.5992 153.703 68.5148 149.4 63.7528V63.7529Z" fill="#232323"/>
<path d="M33 119.715C44.2661 115.166 57.5941 116.803 71.9877 121.638" stroke="#232323" stroke-width="1.22206" stroke-linecap="round"/>
<path d="M74.6744 125.652C61.7367 125.914 50.4513 128.655 41.9418 135.559" stroke="#232323" stroke-width="1.22206" stroke-linecap="round"/>
<path d="M77.8563 129.975C69.7783 131.837 61.4589 139.382 59.802 147.192" stroke="#232323" stroke-width="1.22206" stroke-linecap="round"/>
<path d="M166.65 119.715C155.384 115.166 142.056 116.803 127.663 121.638" stroke="#232323" stroke-width="1.22206" stroke-linecap="round"/>
<path d="M124.976 125.652C137.914 125.914 149.199 128.655 157.708 135.559" stroke="#232323" stroke-width="1.22206" stroke-linecap="round"/>
<path d="M121.794 129.975C129.872 131.837 138.191 139.382 139.848 147.192" stroke="#232323" stroke-width="1.22206" stroke-linecap="round"/>
<path d="M83.872 112.888C84.1067 113.187 84.4267 113.571 84.832 114.04C85.2587 114.488 85.6533 114.968 86.016 115.48C86.4 115.971 86.7093 116.461 86.944 116.952C87.1787 117.443 87.2427 117.869 87.136 118.232C86.9653 118.787 86.6453 119.107 86.176 119.192C85.7067 119.277 85.216 119.192 84.704 118.936C84.3413 118.765 83.9253 118.467 83.456 118.04C82.9867 117.613 82.528 117.165 82.08 116.696C81.6533 116.227 81.2693 115.789 80.928 115.384C80.5867 114.957 80.352 114.659 80.224 114.488C80.224 114.467 80.2133 114.456 80.192 114.456C80.192 114.456 80.192 114.445 80.192 114.424C80.0427 114.595 79.8933 114.787 79.744 115C79.5947 115.192 79.4347 115.384 79.264 115.576C79.0507 115.832 78.8053 116.141 78.528 116.504C78.272 116.845 77.984 117.187 77.664 117.528C77.3653 117.869 77.0453 118.189 76.704 118.488C76.384 118.765 76.064 118.968 75.744 119.096C75.3173 119.267 74.9013 119.235 74.496 119C74.112 118.787 73.8667 118.488 73.76 118.104C73.632 117.656 73.664 117.187 73.856 116.696C74.048 116.205 74.304 115.736 74.624 115.288C74.944 114.819 75.2853 114.371 75.648 113.944C76.032 113.517 76.3413 113.144 76.576 112.824C76.8107 112.525 77.0133 112.269 77.184 112.056C77.376 111.821 77.5573 111.597 77.728 111.384C77.4293 111.064 77.1093 110.712 76.768 110.328C76.4267 109.923 75.9467 109.4 75.328 108.76C75.1147 108.525 74.88 108.269 74.624 107.992C74.368 107.693 74.1333 107.384 73.92 107.064C73.7067 106.744 73.536 106.413 73.408 106.072C73.28 105.731 73.248 105.379 73.312 105.016C73.376 104.696 73.5147 104.44 73.728 104.248C73.9413 104.035 74.1973 103.896 74.496 103.832C74.7947 103.747 75.104 103.736 75.424 103.8C75.744 103.864 76.0427 103.992 76.32 104.184C76.8747 104.589 77.3973 105.091 77.888 105.688C78.3787 106.285 78.8587 106.851 79.328 107.384C79.4773 107.576 79.616 107.757 79.744 107.928C79.8933 108.077 80.032 108.227 80.16 108.376C80.2667 108.205 80.3947 108.035 80.544 107.864C80.7147 107.693 80.8853 107.491 81.056 107.256C81.4827 106.744 81.9093 106.211 82.336 105.656C82.784 105.101 83.2747 104.621 83.808 104.216C84.0853 104.003 84.3733 103.875 84.672 103.832C84.992 103.768 85.2907 103.779 85.568 103.864C85.8453 103.928 86.0907 104.056 86.304 104.248C86.5173 104.44 86.656 104.675 86.72 104.952C86.8053 105.293 86.7947 105.635 86.688 105.976C86.6027 106.317 86.4533 106.648 86.24 106.968C86.048 107.288 85.824 107.597 85.568 107.896C85.3333 108.173 85.1093 108.429 84.896 108.664C84.4053 109.197 83.9787 109.677 83.616 110.104C83.2533 110.531 82.912 110.936 82.592 111.32C82.784 111.533 82.976 111.768 83.168 112.024C83.3813 112.259 83.616 112.547 83.872 112.888Z" fill="#232323"/>
<path d="M121.872 112.888C122.107 113.187 122.427 113.571 122.832 114.04C123.259 114.488 123.653 114.968 124.016 115.48C124.4 115.971 124.709 116.461 124.944 116.952C125.179 117.443 125.243 117.869 125.136 118.232C124.965 118.787 124.645 119.107 124.176 119.192C123.707 119.277 123.216 119.192 122.704 118.936C122.341 118.765 121.925 118.467 121.456 118.04C120.987 117.613 120.528 117.165 120.08 116.696C119.653 116.227 119.269 115.789 118.928 115.384C118.587 114.957 118.352 114.659 118.224 114.488C118.224 114.467 118.213 114.456 118.192 114.456C118.192 114.456 118.192 114.445 118.192 114.424C118.043 114.595 117.893 114.787 117.744 115C117.595 115.192 117.435 115.384 117.264 115.576C117.051 115.832 116.805 116.141 116.528 116.504C116.272 116.845 115.984 117.187 115.664 117.528C115.365 117.869 115.045 118.189 114.704 118.488C114.384 118.765 114.064 118.968 113.744 119.096C113.317 119.267 112.901 119.235 112.496 119C112.112 118.787 111.867 118.488 111.76 118.104C111.632 117.656 111.664 117.187 111.856 116.696C112.048 116.205 112.304 115.736 112.624 115.288C112.944 114.819 113.285 114.371 113.648 113.944C114.032 113.517 114.341 113.144 114.576 112.824C114.811 112.525 115.013 112.269 115.184 112.056C115.376 111.821 115.557 111.597 115.728 111.384C115.429 111.064 115.109 110.712 114.768 110.328C114.427 109.923 113.947 109.4 113.328 108.76C113.115 108.525 112.88 108.269 112.624 107.992C112.368 107.693 112.133 107.384 111.92 107.064C111.707 106.744 111.536 106.413 111.408 106.072C111.28 105.731 111.248 105.379 111.312 105.016C111.376 104.696 111.515 104.44 111.728 104.248C111.941 104.035 112.197 103.896 112.496 103.832C112.795 103.747 113.104 103.736 113.424 103.8C113.744 103.864 114.043 103.992 114.32 104.184C114.875 104.589 115.397 105.091 115.888 105.688C116.379 106.285 116.859 106.851 117.328 107.384C117.477 107.576 117.616 107.757 117.744 107.928C117.893 108.077 118.032 108.227 118.16 108.376C118.267 108.205 118.395 108.035 118.544 107.864C118.715 107.693 118.885 107.491 119.056 107.256C119.483 106.744 119.909 106.211 120.336 105.656C120.784 105.101 121.275 104.621 121.808 104.216C122.085 104.003 122.373 103.875 122.672 103.832C122.992 103.768 123.291 103.779 123.568 103.864C123.845 103.928 124.091 104.056 124.304 104.248C124.517 104.44 124.656 104.675 124.72 104.952C124.805 105.293 124.795 105.635 124.688 105.976C124.603 106.317 124.453 106.648 124.24 106.968C124.048 107.288 123.824 107.597 123.568 107.896C123.333 108.173 123.109 108.429 122.896 108.664C122.405 109.197 121.979 109.677 121.616 110.104C121.253 110.531 120.912 110.936 120.592 111.32C120.784 111.533 120.976 111.768 121.168 112.024C121.381 112.259 121.616 112.547 121.872 112.888Z" fill="#232323"/>
</svg>
