<svg width="200" height="200" viewBox="0 0 200 200" fill="none" xmlns="http://www.w3.org/2000/svg">
<path d="M64.6003 51.0029C56.694 50.92 48.6982 54.1277 44.2832 60.3974C37.2703 70.3575 39.0812 87.9294 56.0072 92.9154C43.3152 121.954 57.9597 139.297 80.7162 142.905C82.6753 144.595 85.4913 146.028 88.4684 146.801C88.5715 146.828 88.6706 146.871 88.774 146.896C89.1544 147.01 89.5211 147.116 89.8815 147.182C93.451 147.841 96.4971 148.131 99.5432 148.118C99.6192 148.118 99.6963 148.117 99.7724 148.118C102.819 148.132 105.865 147.841 109.434 147.182C109.795 147.116 110.161 147.01 110.542 146.896C110.643 146.867 110.745 146.834 110.847 146.801C113.825 146.028 116.621 144.595 118.581 142.905C141.337 139.298 156.001 121.954 143.308 92.9154C160.234 87.9297 162.045 70.3574 155.032 60.3974C145.614 47.0214 119.861 47.5804 113.559 64.2927C108.899 62.7644 105.243 62.1043 100.212 62.2114C100.025 62.2154 99.8434 62.2247 99.658 62.2305C99.4683 62.2245 99.2756 62.2154 99.085 62.2114C94.054 62.1044 90.4168 62.7644 85.757 64.2927C82.4091 55.4145 73.5613 51.0969 64.6003 51.0029Z" stroke="#00DD00" stroke-width="5.4992"/>
<path d="M89.4002 119.933C90.6566 115.234 108.106 114.783 109.899 119.933C111.435 124.344 104.332 130.035 99.6492 130.048C95.3836 130.059 88.1362 124.658 89.3992 119.933H89.4002Z" fill="#00DD00"/>
<path opacity="0.2" d="M49.3002 63.7529C59.266 52.7259 76.3882 59.7819 77.4342 70.5707C72.7094 74.9994 62.4172 83.4728 59.5082 89.4138C40.4322 81.5992 44.9972 68.5149 49.3002 63.7529Z" fill="#00DD00"/>
<path opacity="0.2" d="M149.4 63.7529C139.434 52.7259 122.312 59.7819 121.266 70.5707C125.991 74.9994 136.283 83.4728 139.192 89.4138C158.268 81.5992 153.703 68.5148 149.4 63.7528V63.7529Z" fill="#00DD00"/>
<path d="M33 119.715C44.2661 115.166 57.5941 116.803 71.9877 121.638" stroke="#00DD00" stroke-width="1.22206" stroke-linecap="round"/>
<path d="M74.6744 125.652C61.7367 125.914 50.4513 128.655 41.9418 135.559" stroke="#00DD00" stroke-width="1.22206" stroke-linecap="round"/>
<path d="M77.8563 129.975C69.7783 131.837 61.4589 139.382 59.802 147.192" stroke="#00DD00" stroke-width="1.22206" stroke-linecap="round"/>
<path d="M166.65 119.715C155.384 115.166 142.056 116.803 127.663 121.638" stroke="#00DD00" stroke-width="1.22206" stroke-linecap="round"/>
<path d="M124.976 125.652C137.914 125.914 149.199 128.655 157.708 135.559" stroke="#00DD00" stroke-width="1.22206" stroke-linecap="round"/>
<path d="M121.794 129.975C129.872 131.837 138.191 139.382 139.848 147.192" stroke="#00DD00" stroke-width="1.22206" stroke-linecap="round"/>
<path d="M81.7522 110.311C81.7522 112.963 79.6025 115.113 76.9506 115.113C74.2988 115.113 72.1488 112.963 72.1488 110.311C72.1488 107.659 74.2988 105.51 76.9506 105.51C79.6025 105.51 81.7522 107.659 81.7522 110.311Z" fill="#00DD00"/>
<path d="M127.222 110.311C127.222 112.963 125.072 115.113 122.42 115.113C119.768 115.113 117.618 112.963 117.618 110.311C117.618 107.659 119.768 105.51 122.42 105.51C125.072 105.51 127.222 107.659 127.222 110.311Z" fill="#00DD00"/>
</svg>
