<svg width="500" height="500" viewBox="0 0 500 500" fill="none" xmlns="http://www.w3.org/2000/svg">
<path d="M407.997 322.342C398.391 312.716 385.405 307.223 371.807 307.034C358.209 306.846 345.076 311.977 335.207 321.333L332.939 323.43V337.034L342.009 328.566C350.008 321.004 360.641 316.859 371.649 317.011C382.656 317.163 393.17 321.601 400.957 329.382C401.521 329.943 402.02 330.567 402.443 331.241C406.549 332.554 410.456 334.427 414.051 336.807C414.023 331.375 411.847 326.175 407.997 322.342V322.342Z" fill="#00DD00"/>
<path d="M287.571 129.341C281.249 129.332 275.056 131.125 269.717 134.51C271.671 137.237 273.2 140.246 274.251 143.432C276.93 141.564 279.973 140.282 283.181 139.669C286.389 139.057 289.69 139.127 292.869 139.876C296.048 140.624 299.034 142.035 301.631 144.015C304.228 145.995 306.379 148.5 307.943 151.367C312.346 151.892 316.554 153.488 320.197 156.015C316.649 140.541 303.601 129.341 287.571 129.341Z" fill="#00DD00"/>
<path d="M228.566 100.002C222.581 100.004 216.694 101.522 211.455 104.414C206.216 107.306 201.794 111.479 198.604 116.542C197.257 114.178 195.619 111.992 193.729 110.035C190.592 106.811 186.831 104.258 182.676 102.534C178.521 100.809 174.059 99.9477 169.56 100.002C160.676 100.011 152.157 103.545 145.875 109.827C139.592 116.11 136.059 124.628 136.05 133.513V159.371C130.552 154.396 123.399 151.645 115.985 151.651C99.1729 151.651 86.0001 165.254 86.0001 182.644V388.047C85.9741 408.732 91.681 429.02 102.487 446.658C113.293 464.296 128.776 478.594 147.216 487.966C135.548 478.446 126.015 466.577 119.238 453.129C104.116 434.815 95.8572 411.798 95.8854 388.047V182.656C95.8854 172.453 102.925 161.581 115.951 161.581C119.834 161.59 123.631 162.724 126.883 164.847C130.134 166.97 132.7 169.99 134.27 173.541C138.399 173.771 142.405 175.03 145.924 177.203V133.513C145.93 127.258 148.417 121.261 152.84 116.838C157.263 112.415 163.26 109.928 169.515 109.922C172.675 109.876 175.812 110.473 178.734 111.675C181.657 112.877 184.306 114.66 186.519 116.916C187.994 118.453 189.245 120.19 190.238 122.074C195.315 122.679 200.129 124.663 204.159 127.81C205.581 123.134 208.328 118.97 212.069 115.824C215.809 112.677 220.382 110.683 225.233 110.083C230.084 109.483 235.005 110.303 239.399 112.444C243.794 114.584 247.473 117.953 249.992 122.142C254.569 122.835 258.912 124.62 262.654 127.346C261.157 121.467 258.286 116.027 254.277 111.475C251.053 107.844 247.093 104.943 242.659 102.964C238.225 100.986 233.421 99.9762 228.566 100.002Z" fill="#00DD00"/>
<path d="M193.151 279.593H203.07V135.406C203.063 132.831 203.445 130.271 204.204 127.81C200.175 124.663 195.36 122.679 190.283 122.074C192.166 125.62 193.143 129.577 193.128 133.592L193.151 279.593Z" fill="#00DD00"/>
<path d="M136.05 279.593H145.969V177.203C142.437 175.023 138.415 173.764 134.27 173.541C135.415 176.09 136.006 178.853 136.005 181.647L136.05 279.593Z" fill="#00DD00"/>
<path d="M254.05 279.593H263.969V162.829C263.966 159.007 264.893 155.242 266.671 151.858C268.449 148.475 271.023 145.575 274.172 143.409C273.121 140.223 271.592 137.215 269.637 134.488C267.563 135.786 265.636 137.307 263.89 139.022V137.038C263.884 133.779 263.465 130.534 262.643 127.38C258.901 124.654 254.558 122.869 249.98 122.177C252.662 126.665 254.043 131.81 253.971 137.038L254.05 279.593Z" fill="#00DD00"/>
<path d="M402.488 331.241C403.765 333.232 404.347 335.59 404.141 337.947C403.936 340.303 402.956 342.526 401.354 344.266L316.15 436.703C282.141 474.43 247.497 489.825 196.677 489.825C181.867 489.811 167.246 486.513 153.865 480.167C140.484 473.822 128.677 464.587 119.295 453.129C126.072 466.577 135.605 478.446 147.273 487.966C162.566 495.719 179.473 499.755 196.62 499.744C224.961 499.744 248.96 494.903 269.977 485.007C288.966 476.017 305.959 462.788 323.428 443.425L408.609 350.955C412.179 347.1 414.138 342.026 414.085 336.773C410.491 334.406 406.589 332.544 402.488 331.241V331.241Z" fill="#00DD00"/>
<path d="M210.042 373.118C216.019 366.189 223.42 360.63 231.741 356.821C240.061 353.012 249.105 351.042 258.256 351.046H316.071C317.333 351.035 318.546 350.554 319.472 349.697L332.939 337.034V323.43L321.036 334.619V164.37C321.035 161.563 320.724 158.765 320.107 156.027C316.463 153.499 312.255 151.903 307.852 151.379C310.046 155.354 311.171 159.83 311.117 164.37V341.126H258.256C247.681 341.124 237.23 343.401 227.615 347.803C218 352.204 209.446 358.627 202.538 366.633L210.042 373.118Z" fill="#00DD00"/>
</svg>
