<svg width="500" height="500" viewBox="0 0 500 500" fill="none" xmlns="http://www.w3.org/2000/svg">
<path d="M99.9216 361.485V320.619C102.209 323.116 104.79 325.327 107.608 327.202V312.732C102.653 307.126 99.9192 299.901 99.9216 292.419V244.958C99.916 239.031 101.623 233.229 104.837 228.249C108.051 223.269 112.635 219.324 118.038 216.888C123.441 214.452 129.433 213.629 135.293 214.518C141.153 215.407 146.631 217.97 151.069 221.898C158.705 222.198 166.11 224.607 172.461 228.858V198.086C172.455 191.78 174.251 185.602 177.639 180.282C181.026 174.962 185.863 170.721 191.58 168.058C197.297 165.395 203.656 164.422 209.908 165.252C216.16 166.082 222.044 168.682 226.868 172.745C236.604 173.326 245.869 177.133 253.201 183.566C255.454 179.043 258.701 175.088 262.7 171.998C266.698 168.907 271.344 166.761 276.289 165.72C281.234 164.68 286.35 164.771 291.255 165.987C296.16 167.204 300.726 169.514 304.611 172.745C314.198 173.335 323.333 177.022 330.643 183.253C332.57 179.377 335.381 176.01 338.851 173.422C342.32 170.835 346.349 169.099 350.613 168.357C354.877 167.615 359.256 167.887 363.395 169.15C367.535 170.413 371.319 172.632 374.442 175.629C379.927 175.686 385.335 176.917 390.304 179.24C387.314 172.834 382.621 167.373 376.737 163.454C370.853 159.535 364.006 157.308 356.943 157.017C349.879 156.726 342.872 158.382 336.686 161.803C330.499 165.225 325.373 170.281 321.865 176.419C317.948 169.562 312.275 163.871 305.431 159.932C298.587 155.992 290.817 153.945 282.92 154.001C275.023 154.057 267.283 156.214 260.496 160.251C253.708 164.288 248.118 170.058 244.298 176.97C239.598 168.387 232.176 161.611 223.202 157.71C214.227 153.809 204.209 153.005 194.727 155.424C185.245 157.844 176.837 163.349 170.829 171.073C164.82 178.797 161.552 188.301 161.539 198.086V216.77C155.859 210.562 148.435 206.216 140.241 204.301C132.048 202.386 123.467 202.993 115.623 206.04C107.78 209.088 101.041 214.435 96.2904 221.38C91.5394 228.325 88.9982 236.543 89 244.958V361.485C89.0031 381.863 93.5165 401.987 102.216 420.415C110.916 438.842 123.587 455.116 139.32 468.068C126.866 453.015 117.746 435.493 112.561 416.657C104.236 399.457 99.9146 380.594 99.9216 361.485Z" fill="#00DD00"/>
<path d="M245.564 499.779C336.448 499.779 410.392 425.798 410.392 334.952C410.382 318.267 404.545 302.11 393.89 289.271V195.541C393.893 189.907 392.656 184.342 390.266 179.24C385.298 176.917 379.889 175.686 374.404 175.629C377.093 178.202 379.234 181.292 380.697 184.714C382.16 188.136 382.916 191.819 382.918 195.541V278.525C370.301 268.588 354.704 263.19 338.643 263.202H327.696V195.491C327.693 191.224 328.689 187.015 330.605 183.202C323.312 176.985 314.201 173.298 304.636 172.695C308.421 175.838 311.466 179.776 313.555 184.23C315.644 188.684 316.726 193.543 316.724 198.463V263.152H249.639V198.513C249.636 193.323 250.847 188.204 253.176 183.566C245.844 177.133 236.579 173.326 226.843 172.745C230.55 175.846 233.53 179.723 235.576 184.101C237.621 188.48 238.681 193.254 238.68 198.086V263.202H179.922C177.331 263.196 174.767 263.734 172.398 264.782V244.958V228.858C166.047 224.607 158.643 222.198 151.006 221.898C154.284 224.779 156.909 228.326 158.706 232.303C160.503 236.28 161.431 240.594 161.426 244.958V292.419C161.441 298.684 159.542 304.805 155.983 309.962C152.424 315.119 147.375 319.066 141.512 321.275C135.649 323.484 129.25 323.849 123.174 322.323C117.097 320.796 111.631 317.45 107.508 312.732V327.177C112.192 330.313 117.464 332.466 123.004 333.506C128.544 334.547 134.238 334.453 139.741 333.23C145.244 332.008 150.442 329.682 155.02 326.394C159.599 323.106 163.463 318.923 166.379 314.099C171.186 325.547 179.263 335.322 189.599 342.201C199.935 349.079 212.07 352.756 224.486 352.77H264.937C255.135 359.044 247.07 367.684 241.482 377.892C235.894 388.101 232.965 399.552 232.962 411.19V430.086H243.934V411.19C243.947 395.702 250.105 380.852 261.055 369.9C272.006 358.947 286.854 352.786 302.342 352.77H303.244V341.798H224.448C210.655 341.781 197.432 336.295 187.679 326.542C177.926 316.789 172.44 303.566 172.423 289.773V281.66C172.423 279.665 173.216 277.751 174.627 276.34C176.038 274.929 177.951 274.137 179.947 274.137H338.643C354.733 274.13 370.17 280.507 381.564 291.868C392.958 303.23 399.38 318.648 399.42 334.738V334.738C399.374 375.529 383.149 414.636 354.305 443.48C325.462 472.323 286.355 488.548 245.564 488.594H227.207C203.253 488.593 179.784 481.843 159.489 469.117C139.195 456.392 122.896 438.206 112.461 416.644C117.645 435.48 126.766 453.003 139.219 468.055C163.952 488.552 195.072 499.757 227.194 499.729L245.564 499.779Z" fill="#00DD00"/>
</svg>
