<svg width="500" height="500" viewBox="0 0 500 500" fill="none" xmlns="http://www.w3.org/2000/svg">
<path d="M376.066 104.815C375.065 102.558 373.828 100.419 372.377 98.4367C368.471 93.1086 363.114 89.09 356.985 86.889C350.855 84.688 344.227 84.4035 337.94 86.0716C331.652 87.7396 325.988 91.2852 321.663 96.26C317.337 101.235 314.545 107.415 313.64 114.02L303.081 188.43L296.079 237.77L278.617 114.506C277.387 105.65 272.785 97.6583 265.822 92.2853C258.859 86.9123 250.104 84.5978 241.481 85.8503C232.859 87.1005 225.072 91.8155 219.833 98.9593C214.593 106.103 212.329 115.091 213.538 123.949L228.401 232.568C224.242 230.804 219.788 229.889 215.289 229.876H215.19C206.014 229.888 197.217 233.638 190.73 240.304C184.242 246.969 180.594 256.006 180.585 265.43V268.472C175.809 263.346 169.648 259.806 162.896 258.308C156.143 256.81 149.109 257.423 142.699 260.068C136.288 262.713 130.796 267.269 126.929 273.148C123.061 279.028 120.997 285.962 121 293.057V376.04C120.967 406.997 132.04 436.881 152.103 459.983C156.195 464.696 160.634 469.077 165.381 473.09C183.625 488.602 206.167 497.81 229.8 499.405C232.317 499.578 234.831 499.665 237.341 499.665C266.978 499.685 295.519 488.16 317.207 467.413C340.988 444.513 354.079 412.306 354.079 376.729C354.079 303.461 354.079 303.461 364.384 229.039C367.797 204.421 372.466 170.698 378.62 123.485C379.524 117.139 378.638 110.659 376.066 104.815ZM190.263 265.396C190.269 258.595 192.901 252.074 197.583 247.263C202.264 242.453 208.612 239.746 215.234 239.737H215.3C219.799 239.751 224.212 241.013 228.071 243.39C229.584 244.334 230.997 245.436 232.288 246.681C234.788 249.075 236.78 251.972 238.142 255.192C239.504 258.412 240.206 261.886 240.204 265.396V312.022H200.646C196.987 312.015 193.397 313.036 190.263 314.973V265.374V265.396ZM130.678 293.023C130.815 286.313 133.507 279.925 138.176 275.229C142.844 270.533 149.119 267.903 155.654 267.903C162.188 267.903 168.463 270.533 173.132 275.229C177.801 279.925 180.492 286.313 180.63 293.023V329.833C180.488 330.817 180.418 331.812 180.42 332.807C180.42 333.078 180.42 333.361 180.42 333.644C179.602 340.102 176.422 345.999 171.527 350.139C166.632 354.279 160.387 356.352 154.059 355.938C147.731 355.524 141.793 352.653 137.449 347.908C133.105 343.164 130.681 336.9 130.667 330.387L130.678 293.023ZM310.667 460.164C299.947 470.401 287.305 478.282 273.515 483.322C259.725 488.363 245.077 490.457 230.471 489.476C203.266 487.667 178.009 474.831 159.347 453.345C140.896 432.034 130.709 404.503 130.722 375.983V354.994C132.732 357.162 135 359.061 137.471 360.649C144.942 365.42 153.903 367.083 162.527 365.299C171.151 363.515 178.787 358.417 183.877 351.048C187.423 360.09 193.518 367.839 201.38 373.299C209.243 378.76 218.514 381.683 228.005 381.694H242.78C235.495 386.841 229.538 393.73 225.422 401.768C221.306 409.806 219.154 418.751 219.153 427.833V442.862H228.787V427.754C228.801 415.522 233.539 403.795 241.96 395.145C250.381 386.496 261.798 381.63 273.707 381.615V371.72H228.005C218.17 371.708 208.724 367.775 201.657 360.751C194.59 353.726 190.454 344.158 190.12 334.062C190.23 332.931 190.296 331.8 190.307 330.67C190.79 328.206 192.087 325.989 193.98 324.396C195.872 322.803 198.243 321.931 200.689 321.928H291.213C305.35 321.943 318.904 327.718 328.9 337.986C338.896 348.253 344.519 362.175 344.533 376.696C344.489 409.49 332.478 439.13 310.667 460.164ZM369.129 122.038C362.964 169.24 358.296 202.939 354.894 227.547C346.405 288.839 344.842 300.114 344.555 342.385C338.897 333.082 331.029 325.409 321.69 320.088C312.351 314.766 301.848 311.971 291.169 311.965H249.838V265.374C249.847 258.605 247.963 251.975 244.41 246.274C242.918 243.881 241.155 241.68 239.158 239.715L223.128 122.513C222.275 116.253 223.878 109.902 227.584 104.857C231.291 99.8118 236.796 96.4853 242.89 95.6096C248.984 94.7338 255.168 96.3804 260.08 100.187C264.992 103.994 268.23 109.649 269.083 115.908L291.312 272.815C291.485 273.986 292.062 275.054 292.936 275.826C293.811 276.597 294.926 277.022 296.079 277.022C297.232 277.022 298.347 276.597 299.222 275.826C300.096 275.054 300.673 273.986 300.846 272.815L307.948 222.752L323.174 115.422C324.13 109.25 327.408 103.71 332.301 99.995C337.195 96.2804 343.313 94.6883 349.338 95.5616C355.363 96.4349 360.814 99.7037 364.515 104.664C368.217 109.625 369.874 115.88 369.129 122.083V122.038Z" fill="#00DD00"/>
<path d="M291.311 272.815C291.485 273.985 292.061 275.053 292.936 275.825C293.811 276.597 294.925 277.021 296.078 277.021C297.232 277.021 298.346 276.597 299.221 275.825C300.096 275.053 300.672 273.985 300.846 272.815L307.947 222.751L303.136 188.43L296.134 237.769L278.672 114.506C278.232 111.331 277.358 108.235 276.074 105.312C271.803 103.31 267.16 102.284 262.465 102.304C266.081 105.951 268.426 110.72 269.137 115.874L291.311 272.815Z" fill="#00DD00"/>
<path d="M376.066 104.815C371.788 102.839 367.149 101.821 362.458 101.83C365.027 104.44 366.968 107.63 368.126 111.146C369.284 114.662 369.628 118.407 369.13 122.083C362.964 169.285 358.296 202.985 354.894 227.592C346.405 288.885 344.842 300.159 344.556 342.431C338.898 333.127 331.029 325.454 321.69 320.133C312.351 314.812 301.849 312.017 291.169 312.011H249.838V265.374C249.848 258.605 247.964 251.975 244.41 246.274L244.828 249.339C240.848 247.649 236.595 246.74 232.288 246.659C234.788 249.053 236.781 251.95 238.143 255.17C239.505 258.39 240.206 261.864 240.204 265.374V312.022H200.646C196.988 312.015 193.397 313.036 190.263 314.974V279.623C184.99 276.251 178.925 274.411 172.714 274.297C175.212 276.69 177.204 279.585 178.566 282.803C179.928 286.021 180.63 289.492 180.63 293.001V329.811C180.488 330.795 180.418 331.789 180.421 332.785C180.421 333.056 180.421 333.339 180.421 333.621C179.825 338.454 177.901 343.011 174.874 346.76C171.847 350.51 167.842 353.295 163.329 354.79C158.816 356.286 153.982 356.429 149.392 355.203C144.803 353.978 140.649 351.434 137.416 347.87V360.57C144.887 365.341 153.849 367.004 162.473 365.22C171.097 363.436 178.733 358.339 183.823 350.969C187.368 360.012 193.463 367.76 201.325 373.221C209.188 378.681 218.459 381.604 227.95 381.615H242.725C235.441 386.762 229.483 393.651 225.367 401.689C221.251 409.727 219.1 418.672 219.098 427.754V442.862H228.732V427.754C228.747 415.522 233.484 403.795 241.905 395.145C250.326 386.496 261.743 381.63 273.652 381.615V371.72H227.95C218.116 371.708 208.67 367.776 201.602 360.751C194.535 353.726 190.399 344.158 190.065 334.063C190.175 332.932 190.241 331.801 190.252 330.67C190.735 328.206 192.033 325.99 193.925 324.396C195.817 322.803 198.188 321.931 200.635 321.928H291.158C305.295 321.943 318.849 327.718 328.845 337.986C338.842 348.254 344.464 362.175 344.479 376.696C344.479 409.491 332.467 439.153 310.656 460.153C299.939 470.391 287.299 478.273 273.51 483.315C259.722 488.357 245.077 490.454 230.471 489.476C203.266 487.667 178.01 474.832 159.348 453.345C152.305 445.234 146.412 436.143 141.842 426.341C146.41 443.441 154.451 459.354 165.436 473.034C183.68 488.546 206.222 497.754 229.855 499.349C232.372 499.522 234.886 499.609 237.397 499.609C267.033 499.629 295.575 488.103 317.262 467.357C341.044 444.457 354.134 412.25 354.134 376.673C354.134 303.405 354.134 303.405 364.44 228.983C367.853 204.365 372.521 170.642 378.675 123.429C379.551 117.096 378.646 110.637 376.066 104.815V104.815Z" fill="#00DD00"/>
</svg>
